:SAMPLES-PER-SECOND 30
:FULLY-SPECIFIED
:DEGREES
478
root  37.3459 33.999 0.819736 114.477 78.3353 115.018
RightUpLeg  -29.7788 -6.53022 -14.2112
RightLeg  61.9342 2.49747 4.55111
RightFoot  -29.7679 -0.506371 -1.87566
RightToes  -1.81608e-008 0 -3.6325e-017
Spine  20.6825 0.0387576 -12.037
Spine1  -3.52729 -2.76745 5.22431
HEad  -25.7415 -4.48427 -2.31106
LeftShoulder1  -0.116948 3.95629 -19.2416
LeftArm  -2.91174 -14.4267 -49.6419
LeftForeArm  6.22814 -64.9182 -24.6238
LeftHand  -0.0908031 7.2842 -2.85395
RightShoulder  -0.1683 -4.13994 18.8643
RightArm  -10.5881 5.41769 35.367
RightForeArm  14.5848 74.667 48.288
RightHand  -0.253611 1.95058 -4.18977
LeftUpLeg  -21.1764 15.1761 17.809
LeftLeg  1.83213 -7.01642 0.383388
LeftFoot  8.54099 3.25401 -18.7148
LeftToes  1.81866e-011 -6.13092e-011 2.52013e-011
479
root  37.6122 33.7933 0.406278 110.404 79.965 111.012
RightUpLeg  -29.8949 -5.417 -13.5701
RightLeg  62.7035 2.4978 4.71335
RightFoot  -30.2239 -0.510844 -1.8385
RightToes  -1.81608e-008 0 -3.6325e-017
Spine  21.6828 0.300171 -12.1515
Spine1  -4.19251 -2.64058 5.65535
HEad  -26.5145 -3.81161 -2.43174
LeftShoulder1  -0.149128 4.0757 -19.5185
LeftArm  -3.25416 -14.7133 -49.5801
LeftForeArm  6.48366 -65.0026 -24.7036
LeftHand  -0.0761505 7.06177 -2.37919
RightShoulder  -0.178123 -4.17524 18.984
RightArm  -10.719 5.35111 35.4527
RightForeArm  16.4729 75.0998 50.2645
RightHand  -0.228781 1.1647 -4.17381
LeftUpLeg  -20.6063 15.8528 18.9808
LeftLeg  1.929 -5.23765 0.695355
LeftFoot  8.42588 2.82982 -16.4439
LeftToes  1.81866e-011 -6.13092e-011 2.52013e-011
480
root  37.9348 33.6769 -0.113009 106.834 81.5435 107.229
RightUpLeg  -29.8537 -4.54815 -13.0484
RightLeg  62.924 2.59048 4.95708
RightFoot  -30.6347 -0.433045 -1.32216
RightToes  -1.81608e-008 0 -3.6325e-017
Spine  21.8851 0.296285 -12.2195
Spine1  -3.9567 -2.76625 6.19949
HEad  -27.4255 -3.36651 -2.37364
LeftShoulder1  -0.13676 4.0305 -19.386
LeftArm  -4.16381 -15.0186 -49.7273
LeftForeArm  7.16909 -65.1258 -24.7815
LeftHand  -0.0914176 7.22928 -3.02537
RightShoulder  -0.19145 -4.2238 19.1208
RightArm  -10.6682 5.91448 35.8184
RightForeArm  15.9173 74.9656 49.617
RightHand  -0.222437 1.39077 -3.97058
LeftUpLeg  -19.9598 16.3248 19.8217
LeftLeg  2.14767 -1.6041 1.05519
LeftFoot  8.68844 2.51145 -14.4719
LeftToes  1.81866e-011 -6.13092e-011 2.52013e-011
481
root  38.2538 33.634 -0.684621 101.675 83.2869 101.62
RightUpLeg  -29.8315 -3.41989 -12.372
RightLeg  62.5471 2.66153 5.02045
RightFoot  -30.7589 -0.333946 -0.729685
RightToes  -1.81608e-008 0 -3.6325e-017
Spine  22.4593 0.369754 -12.3552
Spine1  -4.43282 -2.82208 6.78952
HEad  -28.7611 -2.72538 -2.0457
LeftShoulder1  -0.102344 3.90252 -19.094
LeftArm  -4.82664 -15.1082 -49.6935
LeftForeArm  7.19282 -65.2262 -24.9129
LeftHand  -0.0958455 7.40578 -2.94135
RightShoulder  -0.160639 -4.09887 19.305
RightArm  -11.0784 5.7853 36.4956
RightForeArm  16.5614 74.8822 48.9509
RightHand  -0.150927 1.82384 -2.59435
LeftUpLeg  -19.2792 16.7743 20.6872
LeftLeg  2.46734 1.72986 1.37038
LeftFoot  10.1743 2.54524 -13.6576
LeftToes  1.81866e-011 -6.13092e-011 2.52013e-011
482
root  38.6084 33.6917 -1.28898 94.4496 84.6211 93.6411
RightUpLeg  -29.7067 -2.38154 -12.1274
RightLeg  61.5408 2.83133 5.14596
RightFoot  -30.7891 -0.177382 0.186471
RightToes  -1.81608e-008 0 -3.6325e-017
Spine  22.7841 0.452716 -12.9651
Spine1  -4.80853 -2.88151 7.1506
HEad  -29.5029 -2.03776 -1.82003
LeftShoulder1  -0.128667 4.01516 -18.5417
LeftArm  -5.06014 -15.4157 -49.8402
LeftForeArm  7.34044 -65.3625 -25.0784
LeftHand  -0.108192 7.65778 -3.16309
RightShoulder  -0.195788 -4.22186 19.8124
RightArm  -10.9821 5.99537 36.5617
RightForeArm  15.8807 74.7738 48.5265
RightHand  -0.147222 1.31163 -2.69534
LeftUpLeg  -18.7147 16.5381 21.3055
LeftLeg  1.5262 2.3776 2.06324
LeftFoot  14.3489 3.66054 -16.2841
LeftToes  1.81866e-011 -6.13092e-011 2.52013e-011
483
root  39.0445 33.7918 -1.95846 88.6486 86.1969 86.6917
RightUpLeg  -29.5293 -1.34176 -11.5964
RightLeg  60.0224 2.85351 4.85723
RightFoot  -30.7576 0.0261604 1.37465
RightToes  -1.81608e-008 0 -3.6325e-017
Spine  22.8614 0.648583 -13.561
Spine1  -5.43621 -2.95558 8.61152
HEad  -30.7053 -1.65288 -1.3258
LeftShoulder1  -0.138949 4.05921 -18.2656
LeftArm  -4.87993 -15.6444 -49.7634
LeftForeArm  7.55835 -65.493 -25.2304
LeftHand  -0.0791916 7.12133 -2.44536
RightShoulder  -0.166812 -4.10865 19.9134
RightArm  -10.9366 5.21743 36.631
RightForeArm  15.2716 74.5843 47.6474
RightHand  -0.149039 2.00005 -2.51753
LeftUpLeg  -18.6442 17.8799 22.5033
LeftLeg  0.566385 0.140808 1.22775
LeftFoot  17.7016 5.48069 -21.3911
LeftToes  1.81866e-011 -6.13092e-011 2.52013e-011
484
root  39.5389 33.9916 -2.67966 91.7789 87.264 88.5591
RightUpLeg  -28.8522 -1.26586 -11.7521
RightLeg  57.8863 3.01375 4.72488
RightFoot  -30.5437 0.22281 2.54773
RightToes  -1.81608e-008 0 -3.6325e-017
Spine  22.7165 0.602312 -14.1392
Spine1  -6.22026 -3.10556 9.23672
HEad  -31.1594 -1.66001 -0.711879
LeftShoulder1  -0.0526242 3.72191 -17.5495
LeftArm  -4.54874 -15.5651 -49.8067
LeftForeArm  7.55094 -65.7447 -25.5813
LeftHand  -0.0567612 6.95943 -1.29369
RightShoulder  -0.211161 -4.25772 20.6256
RightArm  -10.8948 3.86602 36.4415
RightForeArm  15.3691 74.678 48.1301
RightHand  -0.180546 1.96688 -3.07088
LeftUpLeg  -19.5412 18.8107 22.7929
LeftLeg  1.23547 0.204153 0.461298
LeftFoot  18.9029 6.6136 -24.609
LeftToes  1.81866e-011 -6.13092e-011 2.52013e-011
485
root  40.1095 34.3676 -3.34395 86.5178 87.7852 82.5293
RightUpLeg  -27.1162 -0.293585 -12.2917
RightLeg  54.6737 2.99529 4.14099
RightFoot  -29.9197 0.418008 3.7974
RightToes  -1.81608e-008 0 -3.6325e-017
Spine  21.9887 0.841423 -15.8985
Spine1  -6.15934 -3.10916 9.74628
HEad  -31.0122 -1.52896 -0.209598
LeftShoulder1  -0.102044 3.92119 -17.7341
LeftArm  -3.72818 -15.7673 -49.3087
LeftForeArm  7.3023 -65.6401 -25.4665
LeftHand  -0.0601745 6.95732 -1.49573
RightShoulder  -0.187973 -4.15589 21.28
RightArm  -10.572 2.7903 36.2246
RightForeArm  13.9288 74.2315 46.1866
RightHand  -0.160502 3.46423 -2.32938
LeftUpLeg  -19.678 19.1001 22.6022
LeftLeg  2.2077 -0.243373 -0.071167
LeftFoot  17.8919 6.40965 -24.6718
LeftToes  1.81866e-011 -6.13092e-011 2.52013e-011
486
root  40.8289 34.8241 -3.94913 86.8291 88.2295 82.4585
RightUpLeg  -24.3442 1.12331 -12.6579
RightLeg  50.7345 2.59898 3.06311
RightFoot  -29.1513 0.590614 5.03198
RightToes  -1.81608e-008 0 -3.6325e-017
Spine  20.9822 1.38869 -18.4111
Spine1  -6.14433 -2.98673 11.23
HEad  -29.8311 -1.61058 0.226584
LeftShoulder1  -0.152216 4.11172 -18.397
LeftArm  -3.11499 -15.0497 -49.232
LeftForeArm  7.43515 -65.3208 -25.0118
LeftHand  -0.06607 7.23075 -1.56595
RightShoulder  -0.188209 -4.14763 21.6883
RightArm  -9.63158 1.32634 36.2692
RightForeArm  11.7003 73.6295 43.9414
RightHand  -0.22094 3.70391 -3.08847
LeftUpLeg  -18.8999 18.8443 22.3441
LeftLeg  2.56382 -0.0542764 -0.186484
LeftFoot  16.613 5.96623 -24.0768
LeftToes  1.81866e-011 -6.13092e-011 2.52013e-011
487
root  41.6396 35.3402 -4.56239 142.508 88.2581 137.356
RightUpLeg  -21.0173 0.782847 -12.523
RightLeg  46.0156 1.90804 1.80752
RightFoot  -27.7178 0.719491 6.29834
RightToes  -1.81608e-008 0 -3.6325e-017
Spine  19.2449 1.02848 -19.9139
Spine1  -5.93903 -3.45601 12.349
HEad  -27.5691 -2.43429 0.824176
LeftShoulder1  -0.151398 4.09865 -18.7722
LeftArm  -1.6685 -14.4328 -48.7054
LeftForeArm  7.42616 -64.8104 -24.3349
LeftHand  -0.0758397 7.13618 -2.08454
RightShoulder  -0.237114 -4.30443 22.2354
RightArm  -8.96415 -1.16343 36.5183
RightForeArm  10.6189 73.0352 41.7665
RightHand  -0.173932 4.19383 -2.37911
LeftUpLeg  -19.0347 17.7815 21.4686
LeftLeg  2.15211 -0.744293 0.340877
LeftFoot  15.3745 5.54884 -23.4821
LeftToes  1.81866e-011 -6.13092e-011 2.52013e-011
488
root  42.4967 35.7858 -5.15172 -172.126 86.3829 -177.667
RightUpLeg  -17.4486 -0.998117 -12.0947
RightLeg  42.0168 1.7315 1.3658
RightFoot  -25.6803 0.89514 8.48756
RightToes  -1.81608e-008 0 -3.6325e-017
Spine  17.6446 0.423489 -20.3923
Spine1  -5.90713 -3.88716 12.5544
HEad  -24.895 -3.5748 1.75469
LeftShoulder1  -0.0569678 3.73382 -18.2282
LeftArm  -0.409324 -13.3962 -48.9773
LeftForeArm  8.07922 -64.5697 -23.9481
LeftHand  -0.121836 7.75091 -3.70037
RightShoulder  -0.359429 -4.69362 23.2013
RightArm  -7.96949 -3.99887 35.9209
RightForeArm  9.07546 72.5445 40.2833
RightHand  -0.165005 3.8841 -2.3288
LeftUpLeg  -19.1788 17.1516 20.9532
LeftLeg  2.18346 -2.48193 0.590304
LeftFoot  13.7477 5.1466 -23.2403
LeftToes  1.81866e-011 -6.13092e-011 2.52013e-011
489
root  43.3229 36.1832 -5.75523 -164.902 84.8675 -170.179
RightUpLeg  -15.2357 -3.47437 -12.3612
RightLeg  41.1705 3.11097 2.6449
RightFoot  -21.6609 0.93249 12.1301
RightToes  -1.81608e-008 0 -3.6325e-017
Spine  16.5537 0.323825 -21.2466
Spine1  -6.05327 -4.02872 13.5117
HEad  -22.4062 -4.9472 2.37606
LeftShoulder1  -0.100138 3.89891 -18.5808
LeftArm  1.38291 -12.6872 -48.6645
LeftForeArm  7.34956 -64.4992 -23.9498
LeftHand  -0.12205 7.99925 -3.25542
RightShoulder  -0.408045 -4.83909 23.6235
RightArm  -6.53216 -6.06838 34.8598
RightForeArm  7.9686 72.2658 39.5496
RightHand  -0.161446 3.75418 -2.30481
LeftUpLeg  -18.3312 16.9774 20.8956
LeftLeg  2.6259 -3.99791 0.5272
LeftFoot  11.8216 4.75718 -23.2784
LeftToes  1.81866e-011 -6.13092e-011 2.52013e-011
490
root  44.0224 36.5157 -6.3297 -153.999 83.7094 -159.11
RightUpLeg  -16.1166 -7.39499 -12.5527
RightLeg  44.5466 5.19188 5.19668
RightFoot  -14.5423 0.358151 16.6277
RightToes  -1.81608e-008 0 -3.6325e-017
Spine  15.9068 0.285807 -21.4739
Spine1  -6.5071 -4.07598 14.7114
HEad  -20.8494 -5.70571 2.02847
LeftShoulder1  -0.193684 4.25719 -19.1285
LeftArm  2.40823 -12.0524 -48.0935
LeftForeArm  7.88701 -64.8766 -24.3646
LeftHand  -0.149349 8.45806 -3.67973
RightShoulder  -0.374722 -4.75233 23.0307
RightArm  -5.42776 -7.2425 34.6945
RightForeArm  6.22174 71.8673 38.5835
RightHand  -0.18049 4.0254 -2.48389
LeftUpLeg  -18.1266 17.3257 21.4127
LeftLeg  4.12439 -5.4461 0.347167
LeftFoot  10.157 4.24939 -22.4625
LeftToes  1.81866e-011 -6.13092e-011 2.52013e-011
